Coordinates
version=1
nRows=21
nColumns=12
inDegrees=yes

Units are S.I. units (second, meters, Newtons, ...)
Angles are in degrees

endheader
time	SC_y	SC_z	SC_x	AC_y	AC_z	AC_x	GH_y	GH_z	GH_yy	EL_x	PS_y
       0.0              -52.09          24.51          3.135          37.67          -12.3          11.03          121.4          84.82         -151.5          80.83          67.98
   0.01444              -52.08          24.51          3.145          37.67          -12.3          11.02          121.3          84.81         -151.4          80.83          67.98
   0.02887              -52.08           24.5          3.154          37.67          -12.3          11.02          121.3           84.8         -151.4          80.84          67.98
   0.04331              -52.08           24.5          3.165          37.67          -12.3          11.02          121.3          84.79         -151.4          80.84          67.98
   0.05775              -52.08           24.5          3.176          37.67          -12.3          11.01          121.3          84.78         -151.3          80.84          67.98
   0.07219              -52.08           24.5          3.188          37.67          -12.3          11.01          121.3          84.77         -151.3          80.84          67.98
   0.08662              -52.08           24.5          3.201          37.67         -12.29          11.01          121.3          84.75         -151.2          80.84          67.98
    0.1011              -52.08          24.49          3.214          37.67         -12.29           11.0          121.2          84.74         -151.2          80.84          67.98
    0.1155              -52.08          24.49          3.229          37.66         -12.29           11.0          121.2          84.72         -151.1          80.84          67.98
    0.1299              -52.08          24.49          3.245          37.66         -12.29          10.99          121.2          84.71         -151.1          80.85          67.97
    0.1444              -52.08          24.49          3.261          37.66         -12.28          10.98          121.2          84.69         -151.0          80.85          67.97
    0.1588              -52.08          24.48           3.28          37.66         -12.28          10.98          121.1          84.67         -150.9          80.85          67.97
    0.1732              -52.08          24.48          3.299          37.66         -12.28          10.97          121.1          84.65         -150.9          80.85          67.97
    0.1877              -52.08          24.48           3.32          37.66         -12.27          10.96          121.1          84.63         -150.8          80.85          67.97
    0.2021              -52.07          24.47          3.343          37.66         -12.27          10.96          121.0          84.61         -150.7          80.86          67.97
    0.2166              -52.07          24.47          3.368          37.66         -12.26          10.95          121.0          84.58         -150.6          80.86          67.97
     0.231              -52.07          24.46          3.395          37.66         -12.26          10.94          121.0          84.55         -150.5          80.86          67.97
    0.2454              -52.07          24.46          3.424          37.66         -12.25          10.93          120.9          84.52         -150.4          80.86          67.97
    0.2599              -52.07          24.45          3.456          37.66         -12.25          10.92          120.9          84.49         -150.3          80.87          67.97
    0.2743              -52.07          24.45          3.491          37.66         -12.24          10.91          120.8          84.46         -150.2          80.87          67.97
    0.2887              -52.06          24.44          3.529          37.65         -12.24          10.89          120.7          84.42         -150.0          80.88          67.96
